<svg width="36" height="35" viewBox="0 0 36 35" fill="none" xmlns="http://www.w3.org/2000/svg">
<path fill-rule="evenodd" clip-rule="evenodd" d="M26.9911 5.68583L27.0423 5.71304L26.9911 5.74024V14.9329L35.924 19.6832L35.9486 19.6701V19.6963L35.9999 19.7235L35.9486 19.7508V29.287L26.9576 34.0681V34.0954L26.9319 34.0818L26.9063 34.0954V34.0681L17.9743 29.3184L9.04232 34.0681V34.0954L9.01668 34.0818L8.99104 34.0954V34.0681L0 29.287V19.7235V19.6701L0.0502366 19.6968L8.95776 14.9601V5.7131L8.95764 5.71304L8.95776 5.71297V5.65959L9.00795 5.68628L18 0.904602L26.9664 5.67271L26.9911 5.65959V5.68583Z" fill="white"/>
</svg>
