<svg width="32" height="23" viewBox="0 0 32 23" fill="none" xmlns="http://www.w3.org/2000/svg">
<path d="M32 2.83684V21.252L21.9904 12.0326L32 2.83684ZM16.128 15.4516L31.616 1.1981C31.4704 1.03332 31.287 0.900279 31.079 0.808549C30.8709 0.716819 30.6434 0.668673 30.4128 0.667572H1.84318C1.61254 0.668673 1.38502 0.716819 1.17698 0.808549C0.968945 0.900279 0.785551 1.03332 0.639981 1.1981L16.128 15.4516ZM20.9152 13.0229L16.64 16.9842C16.4964 17.1138 16.3034 17.1864 16.1024 17.1864C15.9014 17.1864 15.7083 17.1138 15.5648 16.9842L11.3408 13.0347L0.959981 22.596C1.2157 22.7719 1.52416 22.8707 1.84318 22.8789H30.4128C30.7318 22.8707 31.0403 22.7719 31.296 22.596L20.9152 13.0229ZM0.255981 2.83684V21.252L10.24 12.0326L0.255981 2.83684Z" fill="white"/>
</svg>
